<?xml version="1.0" standalone="no"?>
<!DOCTYPE svg PUBLIC "-//W3C//DTD SVG 20010904//EN"
 "http://www.w3.org/TR/2001/REC-SVG-20010904/DTD/svg10.dtd">
<svg version="1.0" xmlns="http://www.w3.org/2000/svg"
 width="512.000000pt" height="512.000000pt" viewBox="0 0 512.000000 512.000000"
 preserveAspectRatio="xMidYMid meet">
<metadata>
Created by potrace 1.14, written by Peter Selinger 2001-2017
</metadata>
<g transform="translate(0.000000,512.000000) scale(0.100000,-0.100000)"
fill="#000000" stroke="none">
<path d="M2370 5093 c-74 -6 -241 -29 -280 -37 -14 -3 -50 -11 -80 -17 -108
-21 -301 -82 -430 -134 -52 -21 -303 -146 -310 -155 -3 -3 -34 -23 -70 -45
-36 -21 -69 -43 -75 -47 -5 -4 -44 -34 -85 -65 -470 -356 -800 -848 -939
-1398 -21 -84 -56 -268 -66 -345 -10 -77 -13 -441 -4 -520 16 -145 19 -165 24
-195 54 -278 109 -448 221 -684 30 -62 64 -127 75 -142 11 -16 18 -29 14 -29
-3 0 -1 -6 5 -13 6 -6 43 -61 82 -122 40 -60 75 -112 78 -115 3 -3 35 -41 70
-85 83 -102 221 -240 335 -335 50 -41 92 -77 95 -80 3 -3 32 -23 65 -45 33
-22 62 -42 65 -45 14 -14 168 -103 265 -152 92 -47 322 -141 375 -154 8 -2 58
-15 110 -29 112 -29 295 -63 400 -73 147 -14 547 -6 601 12 8 3 32 7 54 10 80
11 112 18 209 42 144 36 248 69 298 95 10 5 23 9 30 9 26 0 329 157 432 224
324 211 601 498 813 841 80 131 191 383 241 550 46 156 68 254 88 390 26 179
26 560 0 705 -3 14 -7 41 -10 60 -10 60 -16 93 -27 145 -15 68 -49 196 -59
220 -5 11 -18 47 -28 80 -56 168 -220 486 -309 600 -4 6 -28 37 -53 70 -24 33
-55 71 -67 85 -13 14 -21 31 -18 37 2 7 1 12 -4 10 -4 -1 -62 52 -127 118
-211 214 -428 371 -688 499 -261 129 -513 207 -781 242 -27 3 -59 8 -70 11
-24 5 -416 11 -465 6z"/>
</g>
</svg>
